<svg xmlns="http://www.w3.org/2000/svg" xmlns:xlink="http://www.w3.org/1999/xlink" xml:space="preserve" version="1.1" style="shape-rendering:geometricPrecision;text-rendering:geometricPrecision;image-rendering:optimizeQuality;" viewBox="0 0 846.66 1058.325" x="0px" y="0px" fill-rule="evenodd" clip-rule="evenodd"><defs><style type="text/css">
   
    .fil0 {fill:black;fill-rule:nonzero}
   
  </style></defs><g><path class="fil0" d="M223.65 145.67l0 35.2 16.93 0 0 -35.2c26.23,0 52.46,0 78.68,0l0 35.2 16.93 0 0 -35.2c26.23,0 52.46,0 78.68,0l0 35.2 16.93 0 0 -35.2c26.23,0 52.46,0 78.69,0l0 35.2 16.93 0 0 -35.2c26.22,0 52.45,0 78.68,0l0 674.79c-26.23,0 -52.46,0 -78.68,0l0 -35.2 -16.93 0 0 35.2c-26.23,0 -52.46,0 -78.69,0l0 -35.2 -16.93 0 0 35.2c-26.22,0 -52.45,0 -78.68,0l0 -35.2 -16.93 0 0 35.2c-26.22,0 -52.45,0 -78.68,0l0 -35.2 -16.93 0 0 35.2c-26.23,0 -52.45,0 -78.68,0l0 -674.79c26.23,0 52.45,0 78.68,0zm311.45 562.63l-94.97 0 0 -30.88 94.97 0 0 30.88zm0 -55.16l-94.97 0 0 -30.88 94.97 0 0 30.88zm-319.13 24.28l189.94 0 0 30.88 -189.94 0 0 -30.88zm0 -55.16l189.94 0 0 30.88 -189.94 0 0 -30.88zm235.27 -349.01l-24.82 82.79 67.34 0 -150.67 246.2 0 -153.62 -81.7 0 29.56 -175.37 160.29 0zm-38.58 28.74l-97.47 0 -19.87 117.89 76.51 0 0 75.43 66.96 -110.54 -50.96 0 24.83 -82.78zm-93.41 -275.79l0 35.2 16.93 0 0 -35.2c26.23,0 52.46,0 78.69,0l0 35.2 16.93 0 0 -35.2c26.22,0 52.45,0 78.68,0l0 35.2 16.93 0 0 -35.2c26.23,0 52.45,0 78.69,0l0 35.2 16.92 0 0 -35.2c26.23,0 52.45,0 78.68,0l0 674.79 -77.04 0 0 -66.08 29.24 0 0 35.2 16.92 0 0 -613.04 -16.92 0 0 35.21c-26.23,0 -52.45,0 -78.68,0l0 -35.21 -16.94 0 0 35.21c-26.22,0 -52.45,0 -78.68,0l0 -35.21 -16.93 0 0 35.21c-26.23,0 -52.45,0 -78.68,0l0 -35.21 -16.93 0 0 35.21c-26.23,0 -52.46,0 -78.68,0l0 -35.21 -16.93 0 0 68.4 -30.88 0 0 -99.27c26.23,0 52.46,0 78.68,0zm-126.48 150.34l-16.92 0 0 613.04 16.92 0 0 -35.2c26.23,0 52.46,0 78.69,0l0 35.2 16.93 0 0 -35.2c26.22,0 52.45,0 78.68,0l0 35.2 16.93 0 0 -35.2c26.23,0 52.45,0 78.68,0l0 35.2 16.94 0 0 -35.2c26.22,0 52.45,0 78.67,0l0 35.2 16.93 0 0 -613.04 -16.93 0 0 35.21c-26.22,0 -52.45,0 -78.67,0l0 -35.21 -16.94 0 0 35.21c-26.23,0 -52.45,0 -78.68,0l0 -35.21 -16.93 0 0 35.21c-26.23,0 -52.46,0 -78.68,0l0 -35.21 -16.93 0 0 35.21c-26.23,0 -52.46,0 -78.69,0l0 -35.21z"/></g><text x="0" y="861.66" fill="#000000" font-size="5px" font-weight="bold" font-family="'Helvetica Neue', Helvetica, Arial-Unicode, Arial, Sans-serif">Created by Pamerat</text><text x="0" y="866.66" fill="#000000" font-size="5px" font-weight="bold" font-family="'Helvetica Neue', Helvetica, Arial-Unicode, Arial, Sans-serif">from the Noun Project</text></svg>