<svg xmlns="http://www.w3.org/2000/svg" viewBox="0 0 95.38 96.64999999999999" x="0px" y="0px"><title>Asset 35</title><g data-name="Layer 2"><g><path d="M28.62,16a1.5,1.5,0,0,0,1.06-.44L40.13,5.12V39.49a7.1,7.1,0,1,0,3,0V5.12L53.58,15.56a1.5,1.5,0,0,0,2.12-2.12l-13-13h0A1.5,1.5,0,0,0,42.2.11h0a1.46,1.46,0,0,0-1.1,0h0a1.5,1.5,0,0,0-.49.32h0l-13,13A1.5,1.5,0,0,0,28.62,16ZM45.73,46.43a4.1,4.1,0,1,1-4.1-4.1A4.1,4.1,0,0,1,45.73,46.43Z"/><path d="M83.25,63.69V29.17a1.5,1.5,0,0,0-1.5-1.5H54.64a1.5,1.5,0,0,0,0,3H80.25V62.19H3V30.67H28.62a1.5,1.5,0,0,0,0-3H1.5A1.5,1.5,0,0,0,0,29.17V63.69a1.5,1.5,0,0,0,1.5,1.5H81.75A1.5,1.5,0,0,0,83.25,63.69Z"/><path d="M93.88,39.8H88.57a1.5,1.5,0,0,0,0,3h3.81V74.32H15.13V70.17a1.5,1.5,0,0,0-3,0v5.65a1.5,1.5,0,0,0,1.5,1.5H93.88a1.5,1.5,0,0,0,1.5-1.5V41.3A1.5,1.5,0,0,0,93.88,39.8Z"/></g></g><text x="0" y="92.32" fill="#000000" font-size="5px" font-weight="bold" font-family="'Helvetica Neue', Helvetica, Arial-Unicode, Arial, Sans-serif">Created by StoneHub</text><text x="0" y="97.32" fill="#000000" font-size="5px" font-weight="bold" font-family="'Helvetica Neue', Helvetica, Arial-Unicode, Arial, Sans-serif">from the Noun Project</text></svg>